<?xml version="1.0" standalone="no"?><!DOCTYPE svg PUBLIC "-//W3C//DTD SVG 1.1//EN" "http://www.w3.org/Graphics/SVG/1.1/DTD/svg11.dtd"><svg t="1531986429524" class="icon" style="" viewBox="0 0 1024 1024" version="1.1" xmlns="http://www.w3.org/2000/svg" p-id="1806" xmlns:xlink="http://www.w3.org/1999/xlink" width="200" height="200"><defs><style type="text/css"></style></defs><path d="M896 134.4C697.6 134.4 563.2 19.2 556.8 19.2 544 6.4 524.8 0 505.6 0c-12.8 0-32 12.8-38.4 25.6C403.2 102.4 230.4 128 128 128c-19.2 0-32 6.4-38.4 19.2-19.2 12.8-25.6 32-25.6 44.8v345.6C64 704 307.2 1024 512 1024c217.6 0 441.6-326.4 441.6-473.6V192c6.4-32-25.6-57.6-57.6-57.6z m0 416c0 121.6-204.8 409.6-384 409.6-166.4 0-384-281.6-384-422.4V192c102.4 0 307.2-25.6 384-128 6.4 6.4 160 134.4 377.6 134.4v352z" p-id="1807" fill="#ffffff"></path><path d="M512 390.4C416 390.4 332.8 473.6 332.8 576c0 19.2 12.8 32 32 32s32-12.8 32-32C396.8 512 448 454.4 512 454.4S633.6 512 633.6 576c0 19.2 12.8 32 32 32s32-12.8 32-32c0-102.4-83.2-185.6-185.6-185.6zM665.6 652.8H358.4c-19.2 0-32 12.8-32 32s12.8 32 32 32h307.2c19.2 0 32-12.8 32-32s-12.8-32-32-32zM601.6 768H422.4c-19.2 0-32 12.8-32 32s12.8 32 32 32h179.2c19.2 0 32-12.8 32-32s-12.8-32-32-32zM480 224v83.2c0 19.2 12.8 32 32 32s32-12.8 32-32V224c0-12.8-12.8-32-32-32s-32 19.2-32 32zM352 409.6c6.4 0 19.2 0 25.6-6.4 12.8-12.8 12.8-32 0-44.8l-57.6-64c-12.8-12.8-32-12.8-44.8 0s-12.8 32 0 44.8l57.6 57.6c6.4 6.4 12.8 12.8 19.2 12.8zM672 409.6c6.4 0 19.2 0 25.6-6.4l57.6-57.6c12.8-12.8 12.8-32 0-44.8s-32-12.8-44.8 0l-57.6 57.6c-12.8 12.8-12.8 32 0 44.8 0 0 6.4 6.4 19.2 6.4z" p-id="1808" fill="#ffffff"></path></svg>