<?xml version="1.0" standalone="no"?><!DOCTYPE svg PUBLIC "-//W3C//DTD SVG 1.1//EN" "http://www.w3.org/Graphics/SVG/1.1/DTD/svg11.dtd"><svg t="1532335254913" class="icon" style="" viewBox="0 0 1024 1024" version="1.1" xmlns="http://www.w3.org/2000/svg" p-id="6388" xmlns:xlink="http://www.w3.org/1999/xlink" width="200" height="200"><defs><style type="text/css"></style></defs><path d="M509.6 250.6c-83.3 0-151.2 64.1-158.7 145.5-0.2 1.1-0.2 2.2-0.3 3.4V400.4c0 17.5 14.2 31.7 31.7 31.7s31.7-14.2 31.7-31.7v-0.6c5.5-48 46.1-85.7 95.5-85.7 53.2 0 96.6 43.5 96.6 96.6s-43.5 96.6-96.6 96.6c-0.9 0-1.8-0.1-2.8-0.2 0 0.1-0.1 0.2-0.2 0.3-16.1 1.5-28.8 15.1-28.8 31.6v122.9c0 17.4 14.3 31.7 31.7 31.7s31.7-14.3 31.7-31.7v-94.3c73.1-14.8 128.4-79.5 128.4-156.9 0.2-88.3-71.6-160.1-159.9-160.1z" p-id="6389" fill="#d81e06"></path><path d="M509.6 743.8m-31.7 0a31.7 31.7 0 1 0 63.4 0 31.7 31.7 0 1 0-63.4 0Z" p-id="6390" fill="#d81e06"></path><path d="M897.6 740.2c101.1-172.1 78-397-69.7-544.8C652.5 20 368 20 192.6 195.4s-175.4 459.9 0 635.3c147.8 147.8 372.8 170.8 545 69.6L903 944.6c11.3 3 22.9-0.5 30.7-8.3 7.8-7.8 11.4-19.4 8.3-30.7l-44.4-165.4z m-661.5 47.1c-151.2-151.2-151.2-397.2 0-548.4s397.2-151.2 548.4 0C915.4 369.8 932.7 571.6 837 721.6l0.3 0.3c-4.3 7.1-5.9 16-3.6 24.6l32.9 122.7-122.7-32.9c-8.7-2.3-17.6-0.7-24.8 3.7l-0.3-0.3c-150 95.8-351.9 78.5-482.7-52.4z" p-id="6391" fill="#d81e06"></path></svg>