<?xml version="1.0" standalone="no"?><!DOCTYPE svg PUBLIC "-//W3C//DTD SVG 1.1//EN" "http://www.w3.org/Graphics/SVG/1.1/DTD/svg11.dtd"><svg t="1531985155892" class="icon" style="" viewBox="0 0 1024 1024" version="1.1" xmlns="http://www.w3.org/2000/svg" p-id="11246" xmlns:xlink="http://www.w3.org/1999/xlink" width="200" height="200"><defs><style type="text/css"></style></defs><path d="M512 0C230.4 0 0 230.4 0 512s230.4 512 512 512 512-230.4 512-512-230.4-512-512-512z m0 960c-249.6 0-448-198.4-448-448s198.4-448 448-448 448 198.4 448 448-198.4 448-448 448z" p-id="11247" fill="#ffffff"></path><path d="M512 390.4C409.6 390.4 326.4 473.6 326.4 576c0 19.2 12.8 32 32 32s32-12.8 32-32C390.4 512 448 454.4 512 454.4c64 0 121.6 57.6 121.6 121.6 0 19.2 12.8 32 32 32s32-12.8 32-32c0-102.4-83.2-185.6-185.6-185.6zM665.6 652.8H358.4c-19.2 0-32 12.8-32 32s12.8 32 32 32h307.2c19.2 0 32-12.8 32-32s-19.2-32-32-32zM601.6 768H422.4c-19.2 0-32 12.8-32 32s12.8 32 32 32h179.2c19.2 0 32-12.8 32-32s-12.8-32-32-32zM512 345.6c19.2 0 32-12.8 32-32V224c0-12.8-12.8-32-32-32s-32 19.2-32 32v83.2c0 19.2 12.8 38.4 32 38.4zM352 409.6c6.4 0 19.2 0 25.6-6.4 12.8-12.8 12.8-32 0-44.8l-64-64c-12.8-12.8-32-12.8-44.8 0s-12.8 32 0 44.8l57.6 57.6c12.8 6.4 19.2 12.8 25.6 12.8zM704 294.4l-57.6 57.6c-12.8 12.8-12.8 32 0 44.8 6.4 6.4 12.8 6.4 25.6 6.4s19.2 0 25.6-6.4l57.6-57.6c12.8-12.8 12.8-32 0-44.8s-38.4-12.8-51.2 0z" p-id="11248" fill="#ffffff"></path></svg>